<svg width="195" height="54" viewBox="0 0 195 54" fill="none" xmlns="http://www.w3.org/2000/svg">
<g filter="url(#filter0_d_41_48)">
<path d="M43.294 16.6406H33.9616C33.7912 15.4332 33.4432 14.3608 32.9176 13.4233C32.392 12.4716 31.7173 11.6619 30.8935 10.9943C30.0696 10.3267 29.1179 9.81534 28.0384 9.46023C26.973 9.10511 25.8153 8.92756 24.5653 8.92756C22.3068 8.92756 20.3395 9.48864 18.6634 10.6108C16.9872 11.7187 15.6875 13.3381 14.7642 15.4688C13.8409 17.5852 13.3793 20.1562 13.3793 23.1818C13.3793 26.2926 13.8409 28.9062 14.7642 31.0227C15.7017 33.1392 17.0085 34.7372 18.6847 35.8168C20.3608 36.8963 22.2997 37.4361 24.5014 37.4361C25.7372 37.4361 26.8807 37.2727 27.9318 36.946C28.9972 36.6193 29.9418 36.1435 30.7656 35.5185C31.5895 34.8793 32.2713 34.1051 32.8111 33.196C33.3651 32.2869 33.7486 31.25 33.9616 30.0852L43.294 30.1278C43.0526 32.1307 42.4489 34.0625 41.483 35.9233C40.5313 37.7699 39.2457 39.4247 37.6264 40.8878C36.0213 42.3366 34.1037 43.4872 31.8736 44.3395C29.6577 45.1776 27.1506 45.5966 24.3523 45.5966C20.4602 45.5966 16.9801 44.7159 13.9119 42.9545C10.858 41.1932 8.44318 38.6435 6.66761 35.3054C4.90625 31.9673 4.02557 27.9261 4.02557 23.1818C4.02557 18.4233 4.92045 14.375 6.71023 11.0369C8.5 7.69886 10.929 5.15625 13.9972 3.40909C17.0653 1.64773 20.517 0.767044 24.3523 0.767044C26.8807 0.767044 29.2244 1.12216 31.3835 1.83239C33.5568 2.54261 35.4815 3.57954 37.1577 4.94318C38.8338 6.29261 40.1974 7.94744 41.2486 9.90767C42.3139 11.8679 42.9957 14.1122 43.294 16.6406ZM90.0092 23.1818C90.0092 27.9403 89.1072 31.9886 87.3033 35.3267C85.5135 38.6648 83.0703 41.2145 79.9737 42.9759C76.8913 44.723 73.4254 45.5966 69.576 45.5966C65.6982 45.5966 62.218 44.7159 59.1357 42.9545C56.0533 41.1932 53.6172 38.6435 51.8274 35.3054C50.0376 31.9673 49.1428 27.9261 49.1428 23.1818C49.1428 18.4233 50.0376 14.375 51.8274 11.0369C53.6172 7.69886 56.0533 5.15625 59.1357 3.40909C62.218 1.64773 65.6982 0.767044 69.576 0.767044C73.4254 0.767044 76.8913 1.64773 79.9737 3.40909C83.0703 5.15625 85.5135 7.69886 87.3033 11.0369C89.1072 14.375 90.0092 18.4233 90.0092 23.1818ZM80.6555 23.1818C80.6555 20.0994 80.1939 17.5 79.2706 15.3835C78.3615 13.267 77.076 11.6619 75.4141 10.5682C73.7521 9.47443 71.8061 8.92756 69.576 8.92756C67.3459 8.92756 65.3999 9.47443 63.7379 10.5682C62.076 11.6619 60.7834 13.267 59.8601 15.3835C58.951 17.5 58.4964 20.0994 58.4964 23.1818C58.4964 26.2642 58.951 28.8636 59.8601 30.9801C60.7834 33.0966 62.076 34.7017 63.7379 35.7955C65.3999 36.8892 67.3459 37.4361 69.576 37.4361C71.8061 37.4361 73.7521 36.8892 75.4141 35.7955C77.076 34.7017 78.3615 33.0966 79.2706 30.9801C80.1939 28.8636 80.6555 26.2642 80.6555 23.1818ZM106.069 1.36364V45H96.8434V1.36364H106.069ZM150.158 1.36364V45H142.19L123.205 17.5355H122.886V45H113.66V1.36364H121.756L140.592 28.8068H140.975V1.36364H150.158ZM181.453 13.9134C181.282 12.1946 180.551 10.8594 179.258 9.90767C177.966 8.95596 176.211 8.48011 173.995 8.48011C172.49 8.48011 171.218 8.69318 170.181 9.11932C169.145 9.53125 168.349 10.1065 167.795 10.8452C167.255 11.5838 166.985 12.4219 166.985 13.3594C166.957 14.1406 167.12 14.8224 167.475 15.4048C167.845 15.9872 168.349 16.4915 168.988 16.9176C169.627 17.3295 170.366 17.6918 171.204 18.0043C172.042 18.3026 172.937 18.5582 173.889 18.7713L177.809 19.7088C179.713 20.1349 181.46 20.7031 183.051 21.4134C184.642 22.1236 186.02 22.9972 187.184 24.0341C188.349 25.071 189.251 26.2926 189.89 27.6989C190.544 29.1051 190.877 30.7173 190.892 32.5355C190.877 35.206 190.196 37.5213 188.846 39.4815C187.511 41.4276 185.579 42.9403 183.051 44.0199C180.537 45.0852 177.504 45.6179 173.953 45.6179C170.43 45.6179 167.362 45.0781 164.748 43.9986C162.149 42.919 160.118 41.321 158.654 39.2045C157.206 37.0739 156.446 34.4389 156.375 31.2997H165.302C165.402 32.7628 165.821 33.9844 166.559 34.9645C167.312 35.9304 168.314 36.6619 169.564 37.1591C170.828 37.642 172.255 37.8835 173.846 37.8835C175.409 37.8835 176.765 37.6562 177.916 37.2017C179.081 36.7472 179.983 36.1151 180.622 35.3054C181.261 34.4957 181.581 33.5653 181.581 32.5142C181.581 31.5341 181.289 30.7102 180.707 30.0426C180.139 29.375 179.301 28.8068 178.193 28.3381C177.099 27.8693 175.757 27.4432 174.166 27.0597L169.414 25.8665C165.735 24.9716 162.831 23.5724 160.7 21.669C158.569 19.7656 157.511 17.2017 157.525 13.9773C157.511 11.3352 158.214 9.02699 159.635 7.05256C161.069 5.07812 163.037 3.53693 165.537 2.42898C168.037 1.32102 170.877 0.767044 174.059 0.767044C177.298 0.767044 180.125 1.32102 182.539 2.42898C184.968 3.53693 186.858 5.07812 188.207 7.05256C189.556 9.02699 190.252 11.3139 190.295 13.9134H181.453Z" fill="#981B45"/>
</g>
<defs>
<filter id="filter0_d_41_48" x="0.0256348" y="0.76709" width="194.866" height="52.8506" filterUnits="userSpaceOnUse" color-interpolation-filters="sRGB">
<feFlood flood-opacity="0" result="BackgroundImageFix"/>
<feColorMatrix in="SourceAlpha" type="matrix" values="0 0 0 0 0 0 0 0 0 0 0 0 0 0 0 0 0 0 127 0" result="hardAlpha"/>
<feOffset dy="4"/>
<feGaussianBlur stdDeviation="2"/>
<feComposite in2="hardAlpha" operator="out"/>
<feColorMatrix type="matrix" values="0 0 0 0 0 0 0 0 0 0 0 0 0 0 0 0 0 0 0.25 0"/>
<feBlend mode="normal" in2="BackgroundImageFix" result="effect1_dropShadow_41_48"/>
<feBlend mode="normal" in="SourceGraphic" in2="effect1_dropShadow_41_48" result="shape"/>
</filter>
</defs>
</svg>
