<svg width="25" height="24" viewBox="0 0 25 24" fill="none" xmlns="http://www.w3.org/2000/svg">
<path d="M9.9256e-08 7.55013C-0.000153728 6.65313 0.178494 5.76511 0.525504 4.93795C0.872513 4.11079 1.38092 3.36108 2.02102 2.73266C2.66111 2.10424 3.42005 1.60969 4.25348 1.27794C5.08691 0.946179 5.97811 0.783863 6.875 0.800474C7.9362 0.794839 8.98648 1.0148 9.95624 1.44578C10.926 1.87676 11.7931 2.50891 12.5 3.30035C13.2069 2.50891 14.074 1.87676 15.0438 1.44578C16.0135 1.0148 17.0638 0.794839 18.125 0.800474C19.0219 0.783863 19.9131 0.946179 20.7465 1.27794C21.5799 1.60969 22.3389 2.10424 22.979 2.73266C23.6191 3.36108 24.1275 4.11079 24.4745 4.93795C24.8215 5.76511 25.0002 6.65313 25 7.55013C25 14.2448 17.0262 19.2995 12.5 23.2993C7.98375 19.2658 9.9256e-08 14.2498 9.9256e-08 7.55013Z" fill="#FF7A7A"/>
</svg>
