<svg width="26" height="24" viewBox="0 0 26 24" fill="none" xmlns="http://www.w3.org/2000/svg">
<path d="M13 23.2385C12.1938 22.5239 11.2825 21.7805 10.3188 20.9897H10.3063C6.91251 18.2161 3.06626 15.0777 1.36751 11.3171C0.810014 10.1202 0.513764 8.81835 0.500014 7.49652C0.498162 6.59945 0.675654 5.71105 1.02207 4.8835C1.36848 4.05594 1.87683 3.3059 2.51727 2.67742C3.15772 2.04894 3.91734 1.55469 4.75153 1.2237C5.58572 0.892701 6.47768 0.731629 7.37501 0.749938C8.8508 0.752268 10.2948 1.17857 11.535 1.97807C12.08 2.3316 12.573 2.75924 13 3.24867C13.43 2.76142 13.9225 2.33414 14.4663 1.97807C15.7059 1.17841 17.1496 0.752085 18.625 0.749938C19.5224 0.731629 20.4143 0.892701 21.2485 1.2237C22.0827 1.55469 22.8423 2.04894 23.4828 2.67742C24.1232 3.3059 24.6315 4.05594 24.978 4.8835C25.3244 5.71105 25.5019 6.59945 25.5 7.49652C25.4873 8.81937 25.1915 10.1242 24.6325 11.3233C22.9338 15.0839 19.0888 18.2211 15.695 20.9897L15.6825 20.9997C14.7175 21.7855 13.8075 22.5289 13.0013 23.2485L13 23.2385ZM7.37501 3.24867C6.21065 3.23411 5.0876 3.67951 4.25001 4.48804C3.85058 4.88019 3.5341 5.34859 3.31936 5.86541C3.10463 6.38223 2.99603 6.93692 3.00001 7.49652C3.01376 8.45853 3.23251 9.40805 3.64001 10.2801C4.44192 11.9027 5.52392 13.3711 6.83626 14.6179C8.07501 15.8673 9.50001 17.0767 10.7325 18.0936C11.0738 18.3748 11.4213 18.6584 11.7688 18.942L11.9875 19.1206C12.3213 19.393 12.6663 19.6753 13 19.9527L13.0163 19.9377L13.0238 19.9315H13.0313L13.0425 19.9227H13.055L13.0775 19.904L13.1288 19.8628L13.1375 19.8553L13.1513 19.8453H13.1588L13.17 19.8353L14 19.1544L14.2175 18.9757C14.5688 18.6896 14.9163 18.406 15.2575 18.1249C16.49 17.1079 17.9163 15.8998 19.155 14.6441C20.4676 13.398 21.5496 11.9299 22.3513 10.3076C22.7663 9.42804 22.9888 8.46853 23.0013 7.49652C23.0037 6.93852 22.8942 6.3857 22.6793 5.8707C22.4644 5.35569 22.1484 4.88895 21.75 4.49804C20.914 3.68585 19.7908 3.23678 18.625 3.24867C17.9217 3.2427 17.225 3.38555 16.5809 3.66785C15.9367 3.95014 15.3596 4.36549 14.8875 4.88659L13 7.06049L11.1125 4.88659C10.6404 4.36549 10.0633 3.95014 9.41914 3.66785C8.77498 3.38555 8.07835 3.2427 7.37501 3.24867Z" fill="#FF7A7A"/>
</svg>
