<svg width="80" height="80" viewBox="0 0 80 80" fill="none" xmlns="http://www.w3.org/2000/svg">
<circle cx="40" cy="40" r="40" fill="#D9D9D9"/>
<path d="M40.4998 59.9168C52.6965 59.9168 62.5832 50.7763 62.5832 39.5002C62.5832 28.224 52.6965 19.0835 40.4998 19.0835C28.3032 19.0835 18.4165 28.224 18.4165 39.5002C18.4165 50.7763 28.3032 59.9168 40.4998 59.9168Z" stroke="#545454" stroke-width="2" stroke-linecap="round" stroke-linejoin="round"/>
<path d="M47.125 32.3545C45.6123 30.956 42.949 29.9841 40.5 29.9229M33.875 45.6253C35.2972 47.3812 37.945 48.3816 40.5 48.4653M40.5 29.9229C37.585 29.8494 34.9792 31.0682 34.9792 34.3962C34.9792 40.5212 47.125 37.4587 47.125 43.5837C47.125 47.0769 43.892 48.5776 40.5 48.4653M40.5 29.9229V26.2295M40.5 48.4653V52.7712" stroke="#545454" stroke-width="2" stroke-linecap="round" stroke-linejoin="round"/>
</svg>
